PathFileType	4	(X/Y/Z)	Run_500 02
DataRate	CameraRate	NumFrames	NumMarkers	Units	OrigDataRate	OrigDataStartFrame	OrigNumFrames
120	120	4	42	mm	120	343	128
Frame#	Time	LASI			RASI			LPSI			RPSI			RTH1			RTH2			RTH3			LTH1			LTH2			LTH3			RTB1			RTB2			LTB1			LTB2			LTB3			RCAL			RTOE			RMT5			LCAL			LTOE			LMT5			LACR			RACR			CLAV			C7			RUA1			RUA2			RUA3			RLEL			RMEL			LUA1			LUA2			LUA3			LLEL			LMEL			RFAsuperior			RFAradius			RFAulna			LFAsuperior			LFAradius			LFAulna			RTB3		
		X1	Y1	Z1	X2	Y2	Z2	X3	Y3	Z3	X4	Y4	Z4	X5	Y5	Z5	X6	Y6	Z6	X7	Y7	Z7	X8	Y8	Z8	X9	Y9	Z9	X10	Y10	Z10	X11	Y11	Z11	X12	Y12	Z12	X13	Y13	Z13	X14	Y14	Z14	X15	Y15	Z15	X16	Y16	Z16	X17	Y17	Z17	X18	Y18	Z18	X19	Y19	Z19	X20	Y20	Z20	X21	Y21	Z21	X22	Y22	Z22	X23	Y23	Z23	X24	Y24	Z24	X25	Y25	Z25	X26	Y26	Z26	X27	Y27	Z27	X28	Y28	Z28	X29	Y29	Z29	X30	Y30	Z30	X31	Y31	Z31	X32	Y32	Z32	X33	Y33	Z33	X34	Y34	Z34	X35	Y35	Z35	X36	Y36	Z36	X37	Y37	Z37	X38	Y38	Z38	X39	Y39	Z39	X40	Y40	Z40	X41	Y41	Z41	X42	Y42	Z42	

343	  2.858333	955.915995	1010.478251	-768.947719	920.832555	1041.417867	-514.835200	765.859194	1055.344867	-703.800535	750.865465	1054.400292	-623.013073	888.609335	867.668758	-463.577608	980.769251	785.222725	-474.158786	964.645537	660.430490	-526.824454	868.894800	797.067292	-819.078414	901.244999	667.931370	-811.379579	822.393298	573.070761	-789.014151	1096.221913	405.656955	-636.124156	1072.434350	333.468472	-576.454277	706.814386	462.021412	-727.848496	632.148625	523.777156	-771.552176	523.204949	548.624587	-703.749147	933.636532	103.124959	-690.864027	1168.115254	 73.656246	-703.855152	1095.436963	 51.070174	-609.385765	451.339180	694.654660	-671.063092	322.928984	500.108513	-688.724671	335.202388	585.312027	-763.559860	999.990329	1483.248620	-809.437265	919.010040	1488.989565	-473.252697	995.454732	1433.352727	-595.134916	883.900025	1527.952501	-655.066168	850.525550	1410.304021	-399.874972	817.209893	1326.100754	-399.980940	741.854696	1353.876650	-399.321086	659.138891	1246.290450	-351.399359	652.940178	1232.021522	-431.500502	991.298770	1388.763918	-884.376827	987.350983	1317.593312	-874.797070	895.228340	1319.293958	-907.099459	883.706026	1156.754996	-958.084300	815.751584	1158.095526	-900.008175	748.512985	1191.638571	-330.106207	901.629581	1103.570424	-390.335364	869.909823	1071.713919	-333.902172	965.142302	1140.177724	-904.261472	1061.143214	1145.043198	-747.904174	1063.735222	1076.292088	-771.226819	1066.486675	243.410291	-660.258399	
344	  2.866667	951.775374	1004.891764	-768.424955	916.012387	1036.964446	-513.268814	761.643589	1051.974416	-704.041797	745.972804	1051.225846	-624.069496	880.357100	864.776255	-464.137212	971.859301	781.269358	-473.577851	955.447977	657.481142	-528.468313	875.324927	791.996940	-818.686865	915.130358	664.375255	-811.060419	843.007739	565.641265	-789.498733	1077.486421	402.208290	-637.427892	1049.831602	332.327483	-576.520545	734.987955	457.583391	-728.329203	661.125451	518.980434	-773.526270	553.122697	547.385119	-705.663270	893.633291	104.273541	-691.339631	1128.096969	 72.472404	-704.648503	1055.061738	 51.031690	-610.117590	481.039721	695.218712	-676.249050	352.723922	500.360575	-691.322682	366.739048	583.670658	-768.203189	997.540449	1477.304825	-811.467186	920.232355	1483.279746	-472.279301	996.394858	1427.991679	-596.026320	885.114525	1524.841969	-653.194186	857.143164	1397.255966	-396.684127	826.874961	1313.126576	-396.510482	750.624321	1336.198248	-390.559444	675.056144	1226.182838	-341.379901	665.115308	1211.257966	-420.683971	987.703341	1381.017508	-885.189275	982.254639	1309.897405	-875.246531	890.816500	1313.521304	-908.729231	875.855651	1151.680469	-959.338917	808.855561	1153.802621	-900.448456	766.885188	1173.888536	-323.116898	920.155760	1091.382695	-388.804461	891.404449	1058.755449	-331.147474	956.457478	1128.001151	-907.328542	1055.199252	1122.472135	-752.174500	1054.864917	1054.638556	-778.028801	1037.544263	241.565884	-659.940937	
345	  2.875000	947.560933	1000.701160	-768.264367	911.523279	1033.897229	-511.763931	757.824581	1049.807244	-704.549178	741.712824	1049.727422	-625.103491	871.803566	862.272060	-465.151174	962.526240	777.356742	-474.507648	943.603671	654.141136	-530.128372	882.224110	788.215185	-818.297915	931.233802	662.767978	-810.184232	866.009682	560.534971	-790.327461	1056.107288	395.317042	-637.333975	1023.118516	328.184360	-575.739154	764.918208	453.817708	-728.361001	691.339169	514.143170	-775.243417	583.648310	544.387525	-707.563924	853.759049	104.925730	-690.777265	1088.054542	 71.226462	-704.398937	1014.796789	 50.029348	-609.987567	508.686411	693.553552	-681.714275	384.092744	496.164075	-693.519886	398.025330	577.601526	-772.557420	994.619774	1472.317283	-813.066548	921.381959	1478.450617	-471.575011	996.866318	1423.747338	-596.971963	885.838583	1522.077130	-652.014580	863.817660	1386.772214	-394.527384	837.398804	1301.873727	-393.207113	760.715801	1320.176772	-381.935452	693.132285	1207.025310	-331.599418	679.361178	1191.297650	-410.122435	983.191478	1375.183860	-885.784561	976.958528	1304.005413	-875.544681	886.048219	1309.274590	-910.122793	868.032757	1147.805508	-960.230504	801.633148	1150.651655	-900.574209	787.551742	1157.081340	-316.883980	940.181518	1080.718496	-387.694498	914.451917	1047.307555	-328.979763	947.472490	1117.985259	-909.283042	1048.322782	1101.232206	-757.077967	1045.108829	1034.602628	-785.568354	1006.736879	237.427518	-658.284874	
346	  2.883333	943.663190	997.679533	-768.508646	907.523215	1032.168468	-510.816556	754.484770	1048.388621	-705.442579	738.167201	1049.522916	-626.201880	863.635792	860.568252	-465.904952	952.753100	773.447504	-475.646760	929.566806	650.729497	-531.278537	889.761472	785.567300	-817.802784	949.339640	663.416892	-808.877971	891.181853	557.937176	-791.150780	1032.291462	385.667996	-637.285938	994.037544	321.195373	-575.809017	795.900020	451.167297	-727.794410	722.334317	509.549765	-776.538303	614.117935	539.763756	-709.570989	814.146194	105.391572	-689.978091	1048.113339	 69.968435	-703.951157	974.752168	 48.857082	-609.501531	533.882918	689.596033	-687.204067	416.518806	487.762596	-695.422023	428.617299	567.548846	-776.479143	991.475489	1468.212462	-814.166758	922.945886	1474.187572	-471.169397	996.927506	1420.392621	-597.988285	885.725292	1519.486926	-651.442644	870.060111	1379.334567	-393.227452	848.633659	1292.565210	-390.164450	771.864152	1306.611538	-374.710489	713.221527	1189.754843	-322.303158	695.632963	1173.040746	-400.148725	977.887778	1371.344456	-886.351408	971.528846	1299.931232	-875.903167	880.939043	1306.673516	-911.005251	860.116192	1145.485818	-961.014900	793.937163	1148.903860	-900.821171	810.489374	1142.492035	-311.699092	961.791246	1072.957999	-387.258091	939.153680	1038.384751	-327.927832	938.858597	1111.544568	-910.100073	1040.600849	1082.702510	-762.669560	1034.441311	1017.498265	-793.637133	974.072758	231.983384	-657.224065	
